<mxfile host="app.diagrams.net" modified="2024-06-17T07:24:28.386Z" agent="Mozilla/5.0 (Macintosh; Intel Mac OS X 10.15; rv:126.0) Gecko/20100101 Firefox/126.0" etag="5--PWcedq3CcGngV9PQ_" version="24.5.4" type="device">
  <diagram name="Page-1" id="xwTriKCUGvvv0g9xVgej">
    <mxGraphModel dx="1009" dy="784" grid="1" gridSize="10" guides="1" tooltips="1" connect="1" arrows="1" fold="1" page="1" pageScale="1" pageWidth="827" pageHeight="1169" math="0" shadow="0">
      <root>
        <mxCell id="0" />
        <mxCell id="1" parent="0" />
        <mxCell id="XsFljBI2_btFXu9UgIS9-1" value="Autoshop" style="text;spacingTop=-5;fontSize=18;fontStyle=0" parent="1" vertex="1">
          <mxGeometry x="70" y="30" width="230" height="20" as="geometry" />
        </mxCell>
        <mxCell id="XsFljBI2_btFXu9UgIS9-2" value="" style="line;strokeWidth=1" parent="1" vertex="1">
          <mxGeometry x="20" y="60" width="780" height="10" as="geometry" />
        </mxCell>
        <mxCell id="XsFljBI2_btFXu9UgIS9-3" value="" style="line;strokeWidth=1" parent="1" vertex="1">
          <mxGeometry x="20" y="90" width="780" height="10" as="geometry" />
        </mxCell>
        <mxCell id="XsFljBI2_btFXu9UgIS9-4" value="Home" style="text;spacingTop=-5;" parent="1" vertex="1">
          <mxGeometry x="20" y="70.00000000000009" width="30" height="20" as="geometry" />
        </mxCell>
        <mxCell id="XsFljBI2_btFXu9UgIS9-5" value="Autos" style="text;spacingTop=-5;" parent="1" vertex="1">
          <mxGeometry x="59.999999999999936" y="70.00000000000016" width="30" height="20" as="geometry" />
        </mxCell>
        <mxCell id="XsFljBI2_btFXu9UgIS9-6" value="" style="verticalLabelPosition=bottom;verticalAlign=top;strokeWidth=1;shape=mxgraph.mockup.graphics.iconGrid;strokeColor=#CCCCCC;gridSize=1,1;" parent="1" vertex="1">
          <mxGeometry x="20" y="15" width="40" height="40" as="geometry" />
        </mxCell>
        <mxCell id="XsFljBI2_btFXu9UgIS9-7" value="Blog &#xa;Logo" style="text;spacingTop=-5;align=center" parent="1" vertex="1">
          <mxGeometry x="20" y="20" width="40" height="40" as="geometry" />
        </mxCell>
        <mxCell id="XsFljBI2_btFXu9UgIS9-9" value="" style="verticalLabelPosition=bottom;shadow=0;dashed=0;align=center;html=1;verticalAlign=top;strokeWidth=1;shape=mxgraph.mockup.graphics.simpleIcon;strokeColor=#999999;" parent="1" vertex="1">
          <mxGeometry x="35" y="160" width="300" height="300" as="geometry" />
        </mxCell>
        <mxCell id="XsFljBI2_btFXu9UgIS9-10" value="&lt;b&gt;&lt;font style=&quot;font-size: 30px;&quot;&gt;Car&lt;/font&gt;&lt;/b&gt;" style="text;html=1;align=center;verticalAlign=middle;resizable=0;points=[];autosize=1;strokeColor=none;fillColor=none;" parent="1" vertex="1">
          <mxGeometry x="379" y="160" width="70" height="50" as="geometry" />
        </mxCell>
        <mxCell id="XsFljBI2_btFXu9UgIS9-11" value="&lt;div align=&quot;left&quot;&gt;&lt;ul&gt;&lt;li&gt;ersteller&lt;/li&gt;&lt;li&gt;ps&lt;/li&gt;&lt;li&gt;model&lt;br&gt;&lt;/li&gt;&lt;li&gt;&lt;div&gt;n km&lt;/div&gt;&lt;/li&gt;&lt;li&gt;transmission: automatic&lt;/li&gt;&lt;li&gt;year: 2020&lt;/li&gt;&lt;li&gt;200&#39;000 Fr.&lt;br&gt;&lt;/li&gt;&lt;/ul&gt;&lt;/div&gt;" style="text;html=1;align=left;verticalAlign=middle;resizable=0;points=[];autosize=1;strokeColor=none;fillColor=none;" parent="1" vertex="1">
          <mxGeometry x="379" y="200" width="190" height="150" as="geometry" />
        </mxCell>
        <mxCell id="XsFljBI2_btFXu9UgIS9-12" value="Contact" style="strokeWidth=1;shadow=0;dashed=0;align=center;html=1;shape=mxgraph.mockup.buttons.button;strokeColor=#666666;fontColor=#ffffff;mainText=;buttonStyle=round;fontSize=17;fontStyle=1;fillColor=#008cff;whiteSpace=wrap;" parent="1" vertex="1">
          <mxGeometry x="399" y="360" width="150" height="50" as="geometry" />
        </mxCell>
        <mxCell id="XsFljBI2_btFXu9UgIS9-13" value="&lt;i&gt;details Å­ber Auto&lt;/i&gt;" style="text;html=1;align=center;verticalAlign=middle;whiteSpace=wrap;rounded=0;" parent="1" vertex="1">
          <mxGeometry x="399" y="430" width="401" height="30" as="geometry" />
        </mxCell>
      </root>
    </mxGraphModel>
  </diagram>
</mxfile>
